<svg width="105" height="59" viewBox="0 0 105 59" fill="none" xmlns="http://www.w3.org/2000/svg">
<path fill-rule="evenodd" clip-rule="evenodd" d="M-30.5714 4.21429C-30.5714 6.54177 -32.4582 8.42857 -34.7857 8.42857C-37.1132 8.42857 -39 6.54177 -39 4.21429C-39 1.8868 -37.1132 0 -34.7857 0C-32.4582 0 -30.5714 1.8868 -30.5714 4.21429ZM-13.7143 4.21429C-13.7143 6.54177 -15.6011 8.42857 -17.9286 8.42857C-20.2561 8.42857 -22.1429 6.54177 -22.1429 4.21429C-22.1429 1.8868 -20.2561 0 -17.9286 0C-15.6011 0 -13.7143 1.8868 -13.7143 4.21429ZM-1.07143 8.42857C1.25606 8.42857 3.14286 6.54177 3.14286 4.21429C3.14286 1.8868 1.25606 0 -1.07143 0C-3.39891 0 -5.28571 1.8868 -5.28571 4.21429C-5.28571 6.54177 -3.39891 8.42857 -1.07143 8.42857ZM20 4.21429C20 6.54177 18.1132 8.42857 15.7857 8.42857C13.4582 8.42857 11.5714 6.54177 11.5714 4.21429C11.5714 1.8868 13.4582 0 15.7857 0C18.1132 0 20 1.8868 20 4.21429ZM32.6429 8.42857C34.9703 8.42857 36.8571 6.54177 36.8571 4.21429C36.8571 1.8868 34.9703 0 32.6429 0C30.3154 0 28.4286 1.8868 28.4286 4.21429C28.4286 6.54177 30.3154 8.42857 32.6429 8.42857ZM53.7143 4.21429C53.7143 6.54177 51.8275 8.42857 49.5 8.42857C47.1725 8.42857 45.2857 6.54177 45.2857 4.21429C45.2857 1.8868 47.1725 0 49.5 0C51.8275 0 53.7143 1.8868 53.7143 4.21429ZM66.3571 8.42857C68.6846 8.42857 70.5714 6.54177 70.5714 4.21429C70.5714 1.8868 68.6846 0 66.3571 0C64.0297 0 62.1429 1.8868 62.1429 4.21429C62.1429 6.54177 64.0297 8.42857 66.3571 8.42857Z" fill="url(#paint0_linear_7_49790)"/>
<path fill-rule="evenodd" clip-rule="evenodd" d="M-13.7143 54.7856C-13.7143 57.1131 -15.6011 58.9999 -17.9286 58.9999C-20.2561 58.9999 -22.1429 57.1131 -22.1429 54.7856C-22.1429 52.4581 -20.2561 50.5713 -17.9286 50.5713C-15.6011 50.5713 -13.7143 52.4581 -13.7143 54.7856ZM-30.5714 54.7857C-30.5714 57.1132 -32.4582 59 -34.7857 59C-37.1132 59 -39 57.1132 -39 54.7857C-39 52.4582 -37.1132 50.5714 -34.7857 50.5714C-32.4582 50.5714 -30.5714 52.4582 -30.5714 54.7857ZM-1.07143 58.9999C1.25606 58.9999 3.14286 57.1131 3.14286 54.7856C3.14286 52.4581 1.25606 50.5713 -1.07143 50.5713C-3.39891 50.5713 -5.28571 52.4581 -5.28571 54.7856C-5.28571 57.1131 -3.39891 58.9999 -1.07143 58.9999ZM20 54.7856C20 57.1131 18.1132 58.9999 15.7857 58.9999C13.4582 58.9999 11.5714 57.1131 11.5714 54.7856C11.5714 52.4581 13.4582 50.5713 15.7857 50.5713C18.1132 50.5713 20 52.4581 20 54.7856ZM32.6429 58.9999C34.9703 58.9999 36.8571 57.1131 36.8571 54.7856C36.8571 52.4581 34.9703 50.5713 32.6429 50.5713C30.3154 50.5713 28.4286 52.4581 28.4286 54.7856C28.4286 57.1131 30.3154 58.9999 32.6429 58.9999ZM53.7143 54.7856C53.7143 57.1131 51.8275 58.9999 49.5 58.9999C47.1725 58.9999 45.2857 57.1131 45.2857 54.7856C45.2857 52.4581 47.1725 50.5713 49.5 50.5713C51.8275 50.5713 53.7143 52.4581 53.7143 54.7856ZM66.3571 58.9999C68.6846 58.9999 70.5714 57.1131 70.5714 54.7856C70.5714 52.4581 68.6846 50.5713 66.3571 50.5713C64.0297 50.5713 62.1429 52.4581 62.1429 54.7856C62.1429 57.1131 64.0297 58.9999 66.3571 58.9999Z" fill="url(#paint3_linear_7_49790)"/>
<defs>
<linearGradient id="paint0_linear_7_49790" x1="-39" y1="4.21429" x2="67.4461" y2="4.2143" gradientUnits="userSpaceOnUse">
<stop stop-color="#BD24DF"/>
<stop offset="1" stop-color="#2D6ADE"/>
</linearGradient>
<linearGradient id="paint1_linear_7_49790" x1="-22.1445" y1="21.0715" x2="84.3015" y2="21.0715" gradientUnits="userSpaceOnUse">
<stop stop-color="#BD24DF"/>
<stop offset="1" stop-color="#2D6ADE"/>
</linearGradient>
<linearGradient id="paint2_linear_7_49790" x1="-5.28516" y1="37.9285" x2="101.161" y2="37.9285" gradientUnits="userSpaceOnUse">
<stop stop-color="#BD24DF"/>
<stop offset="1" stop-color="#2D6ADE"/>
</linearGradient>
<linearGradient id="paint3_linear_7_49790" x1="-39" y1="54.7856" x2="67.4461" y2="54.7856" gradientUnits="userSpaceOnUse">
<stop stop-color="#BD24DF"/>
<stop offset="1" stop-color="#2D6ADE"/>
</linearGradient>
</defs>
</svg>
