<svg width="2000" height="1400" xmlns="http://www.w3.org/2000/svg"><path fill="none" d="M0 0h2000v1400H0z"/><path d="M0 175h0c87.298 5.37 174.596 10.74 253 12 78.404 1.26 147.913-1.589 231 3 83.087 4.589 179.752 16.616 272 10 92.248-6.616 180.077-31.875 261-46s154.938-17.116 228-9c73.062 8.116 145.17 27.339 234 24 88.83-3.339 194.38-29.24 284-32 89.62-2.76 163.31 17.62 277 38" fill="none" stroke="#442eff" stroke-linecap="round"/><path d="M0 350h0c92.104 20.54 184.209 41.081 272 37 87.791-4.081 171.27-32.785 254-37 82.73-4.215 164.712 16.058 242 7 77.288-9.058 149.881-47.446 226-43 76.119 4.446 155.764 51.728 242 52 86.236.272 179.064-46.465 268-47 88.936-.535 173.982 45.133 256 58 82.018 12.867 161.01-7.066 280-27" fill="none" stroke="#311aff" stroke-linecap="round"/><path d="M0 525h0c74.991 10.8 149.982 21.598 231 19 81.018-2.598 168.062-18.594 253-30 84.938-11.406 167.769-18.222 250-8 82.231 10.222 163.863 37.482 244 31 80.137-6.482 158.779-46.707 245-47 86.221-.293 180.021 39.344 265 41 84.979 1.656 161.137-34.67 245-42 83.863-7.33 175.432 14.335 307 36M0 700h0c67.198 14.631 134.397 29.262 222 30 87.603.738 195.611-12.418 284-26 88.389-13.582 157.158-27.592 233-23 75.842 4.592 158.756 27.786 238 23 79.244-4.786 154.818-37.55 249-34 94.182 3.55 206.972 43.418 301 44 94.028.582 169.294-38.12 245-47 75.706-8.88 151.853 12.06 268 33" fill="none" stroke="#3119ff" stroke-linecap="round"/><path d="M0 875h0c84.663 2.253 169.326 4.506 251 10s160.357 14.228 248 20 184.244 8.581 265-7 145.667-49.554 228-47c82.333 2.554 182.09 41.633 274 46 91.91 4.367 175.976-25.978 255-38 79.024-12.022 153.007-5.72 232 0s162.997 10.86 287 16" fill="none" stroke="#8577ff" stroke-linecap="round"/><path d="M0 1050h0c80.51 5.742 161.018 11.483 242 3s162.436-31.192 245-32c82.564-.808 166.238 20.285 255 17s182.613-30.946 274-26c91.387 4.946 180.31 42.501 256 60 75.69 17.499 138.147 14.942 211 6 72.853-8.942 156.1-24.27 244-30s180.45-1.865 313 2" fill="none" stroke="#b2a9ff" stroke-linecap="round"/><path d="M0 1225h0c96.589-5.016 193.177-10.032 275-13 81.823-2.968 148.88-3.888 228 2s170.305 18.584 260 31 177.899 24.554 258 13c80.101-11.554 152.1-46.798 231-51 78.9-4.202 164.704 22.638 243 34 78.296 11.362 149.085 7.246 232 2 82.915-5.246 177.958-11.623 313-18" fill="none" stroke="#988cff" stroke-linecap="round"/></svg>