<svg xmlns="http://www.w3.org/2000/svg" version="1.1" xmlns:xlink="http://www.w3.org/1999/xlink" xmlns:svgjs="http://svgjs.dev/svgjs" viewBox="0 0 1422 800"><defs><linearGradient x1="50%" y1="0%" x2="50%" y2="100%" id="ssscribble-grad"><stop stop-color="hsl(0, 5%, 89%)" stop-opacity="1" offset="0%"></stop><stop stop-color="hsl(331, 6%, 90%)" stop-opacity="1" offset="100%"></stop></linearGradient></defs><g fill="none" stroke-width="1.5" stroke="url(#ssscribble-grad)" stroke-linecap="round"><path d="M1985.81 323.78C2094.66 349.15 2245.4 371.8 2362.65 391.8 2389.77 411.85 2313 429.38 2170.27 444.56 2029.04 460.01 1955.17 473.43 1980.29 485.17 2090.69 497.68 2231.7 509.14 2336.89 520.16 2358.63 532.87 2285.31 546.16 2148.98 560.91 2006.46 578.66 1916.78 599.2 1913.38 623.5 1994.03 652.16 2120.07 685.78 2236.22 725.05 2294.64 769.22 2268.84 819.25 2168.12 875.02 2028.23 934.14 1899.7 997.29 1825.67 1063.01 1828.02 1127.64 1900.13 1190.91 2010.47 1250.21 2118.43 1301.89 2181.88 1344.77 2177.99 1376.29 2106.09 1394.97 1986.96 1399.78 1855.53 1390.26 1746.73 1369.07 1689.36 1336.84 1693.46 1296.71 1753 1255.22 1844.51 1215.12 1937.88 1181.91 2006.91 1162.34 2028.88 1159.09 1997.29 1175.67 1917.7 1213.35 1807.45 1271.01 1689.77 1345.65 1585.52 1430.57 1514.53 1519.55 1485.59 1604.07 1499.58 1674.69 1547.68 1724.9 1615.03 1748.85 1687.98 1744.83 1747.72 1713.79 1782.33 1660.58 1786.19 1595.75 1756.19 1528.55 1697.01 1471.1 1614.73 1435.97 1520.64 1429.95 1425.5 1457.52 1336.16 1517.26 1262.51 1602.31 1208.67 1701.3 1175.87 1798.79 1164.13 1880.4 1169.88 1932.66 1191.03 1947.4 1220.76 1922.6 1253.66 1863.34 1288.62 1783.37 1318.43 1698.05 1340.34 1625.94 1355.41 1584.7 1359.74 1583.81 1353.76 1626.37 1339.21 1705.88 1315.84 1807.78 1285.59 1912.1 1249.19 1997.27 1208.76 2045.8 1166.21 2047.03 1120.55 2001.78 1075.02 1919.88 1030.83 1820.44 985.56 1728.56 942.79 1665.49 903.09 1647.7 863.16 1681.27 826.67 1758.85 793.83 1862.71 760.97 1967.89 731.81 2048.61 706.44 2084.25 681.06 2065.9 659.79 1998.05 642.54 1898.23 625.27 1790.99 611.98 1702.23 602.49 1652.51 592.78 1653.01 586.5 1701.85 583.1 1785.84 578.63 1885.43 575.89 1975.37 573.7 2034.55 568.41 2050.07 561.41 2017.2 550.85 1943.21 534.13 1843.33 510.98 1738.25 479.5 1648.8 439.45 1591.64 389.57 1576.47 329.48 1603.46 262.54 1665.81 188.22 1747.79 109.29 1831.27 32.42 1900.14 -40.72 1938.63 -104.71 1939.02 -153.3 1900.72 -183.83 1829.31 -192.69 1736.61 -180.51 1636.38 -147.9 1544.39 -98.98 1473.42 -44.24 1432.05 10.06 1424.14 53.24 1447.37 73.31 1496.5 64.88 1560.24 23.29 1626.7 -49.04 1686.31 -145.81 1727.41 -255.06 1743.58 -358.71 1732.47 -442.38 1693.9 -491.18 1632.35 -497.05 1553.5 -460.1 1466.14 -389.11 1378.86 -304.68 1298.21 -226.89 1231.81 -178.93 1183.74 -178.98 1155.98 -231.76 1148.62 -330.75 1159.11 -454.08 1185.26 -574.69 1221.06 -662.45 1261.12 -694.77 1302.63 -664.73 1338.77 -582.34 1365.9 -430.52 1384.86 -400.55 1336.26 -574.67 1273.65 -707.64 1219.76 -801.4 1160.29 -824.39 1097.87 -771.01 1032.88 -662.12 969.03 -540.82 908 -458.7 849.18 -450.45 795.32 -525.36 746.83 -658.01 702.64 -799.47 664.01 -894.43 630.43 -905.35 601.08 -828.88 575.85 -698.45 553.84 -574.2 534.94 -511.84 518.02 -543.36 502.22 -658.35 488.29 -807.98 474.42 -925.83 459.97 -958.38 446.43 -890.75 431.62 -754.54 415.13 -616.83 398.98 -543.85 380.78 -573.52 360.29 -693.3 339.88 -845.33 317.04 -954.18 291.67 -964.89 266.3 -872.21 238.71 -723.3 209.01 -590.98 179.38 -538.94 147.81 -589.75 114.54 -717.83 81.61 -859.21 47.37 -946.15 12.25 -938.37 -21.96 -838.21 -56.36 -691.14 -90.27 -561.14 -122.32 -503.87 -152.83 -540.11 -180.9 -651.18 -205.86 -784.47 -227.14 -880.57 -243.82 -898.4 -256.27 -828.08 -263.19 -697.48 -264.03 -506.17 -255.9 -544.81 -209.1 -716.54 -176.74 -796.2 -157.16 -805.72 -139.95 -740.76 -127.72 -621.06 -124.3 -485.16 -130.27 -374.45 -147.8 -319.4 -178.19 -332.45 -221.62 -402.54 -277.85 -504.67 -344.07 -601.62 -418.65 -661.8 -497.89 -666.72 -575.68 -611.83 -648.51 -511.12 -710.97 -387.32 -757.76 -270.47 -785.98 -185.19 -793.03 -146.39 -779.77 -158.07 -747.43 -210.67 -700.04 -289.35 -646.01 -370.34 -591.1 -433.25 -543.89 -464.87 -513.97 -455.32 -506.2 -406.18 -525.04 -324.19 -571.16 -223.08 -641.35 -118.18 -729.18 -21.35 -823.87 53.86 -914.94 101.24 -990.49 118.76 -1040.14 108.6 -1057.74 77.46 -1040.93 30.65 -994.52 -20.44 -926.15 -67.33 -848.55 -117.52 -753.59 -104.15 -761.13 -42.51 -877.65 16.16 -979.72 82.43 -1079.27 152.06 -1158.11 224.65 -1201.6 294.47 -1201.85 359.33 -1159.02 420.63 -1083.9 474.69 -992.03 521.55 -904.23 563.12 -842.31 598.2 -820.39 628 -845.68 653.64 -914.65 675.8 -1013.21 695.84 -1120.24 713.52 -1211.66 730.71 -1266.77 748.39 -1272.3 765.1 -1227.62 783.33 -1142.66 803.64 -1037.96 823.73 -940.67 846.36 -874.1 871.73 -855.73 897.1 -891.35 924.91 -970.77 954.93 -1073.41 984.73 -1174.73 1016.28 -1248.53 1048.98 -1277.1 1080.72 -1254.31 1112.59 -1185.01 1143.57 -1085.7 1172.19 -978.81 1198.3 -888.28 1220.51 -833.23 1238.55 -824.65 1250.9 -862.21 1256.29 -935.3 1256.4 -1027.53 1248.86 -1116.22 1233.59 -1181.42 1214.76 -1209.67 1190.48 -1193.37 1162.92 -1135.65 1138.32 -1047.06 1116.57 -944.18 1101.86 -845.62 1099.87 -767.75 1111.92 -723.31 1141.3 -717.4 1188.56 -749.01 1253.54 -808.96 1334.04 -883.83 1422.58 -960.18 1514.73 -1021.63 1601.95 -1056.82 1673.5 -1059.84 1723.43 -1028.33 1745.01 -966.78 1736.74 -882.92 1699.95 -788.38 1640.85 -695.33 1573.68 -613.9 1509.61 -553.75 1463.92 -519.78 1451.08 -513.77 1477.09 -533.16 1543.52 -572.14 1641.24 -625.03 1756.27 -681.55 1868.21 -733.22 1954.06 -774.61 1998.2 -798.22 1991.04 -801.1 1937.39 -782.87 1851.35 -744.05 1757.51 -688.19 1686.76 -618.68 1660.97 -541.54 1694.12 -462.32 1782.51 -384.46 1906.8 -313.8 2035.34 -253.5 2131.85 -204.88 2170.4 -169.92 2139.9 -148.19 2053.74 -139.29 1941.45 -141.12 1844.39 -151.14 1802.05 -168.79 1833.23 -189.8 1933.53 -211.58 2071.04 -234.46 2200.41 -254.19 2275.87 -269.34 2271.02 -281.14 2189.29 -286.66 2064.11 -285.8 1950 -280.04 1895.09 -268.11 1927.24 -250.75 2037.66 -229.02 2184.16 -203.04 2307.32 -173.83 2355.65 -141.6 2309.33 -107.47 2189.11 -72.33 2051.84 -35.51 1960.31 1.29 1959.96 37.44 2054.34 74.36 2201.96 110 2335.06 143.96 2390.89 178.2 2342.64 210.45 2212.86 240.51 2066.5 270.62 1975.1 298.41 1985.81 323.78Q1985.81 323.78 1985.81 323.78" opacity="0.89"></path><path d="M1880.81 264.91C1979.59 288.47 2118.98 313.9 2238.39 341.18 2287.89 368.54 2245.87 397.89 2130.87 429.31 1990.2 460.98 1881.18 494.9 1846.12 531.17 1897.23 567.8 2010.92 606.88 2139.57 648.35 2232.65 690.04 2251.77 733.92 2189.65 779.65 2068.66 824.9 1932.83 871.23 1829.8 917.92 1793.57 962.63 1833.45 1006.22 1930.67 1047.55 2049.54 1084.71 2144.82 1117.67 2182.76 1145.13 2149.94 1166.22 2055.23 1180.18 1928.05 1186.11 1805.07 1184.92 1722.07 1175.62 1699.45 1158.55 1739.88 1136.73 1826.08 1109.75 1928.5 1079.6 2016.86 1050.92 2062.24 1024.28 2051.35 1002.85 1985.62 991.01 1880.51 989.84 1761.03 1001.8 1652.28 1028.43 1578.06 1069.72 1550.54 1125.13 1571.63 1191.54 1631.15 1266.49 1711.05 1345.57 1793.12 1422.27 1855.3 1492.29 1883.72 1549.9 1872.41 1590.04 1821.51 1609.87 1740.04 1607.49 1639.27 1584.69 1535.77 1543.66 1443.75 1489.52 1372.86 1431.3 1331.41 1375.45 1320.42 1330.6 1338.14 1305.57 1377.21 1304.6 1428.39 1330.76 1485.14 1383.15 1535.71 1457.28 1573 1545.56 1594.07 1636.87 1594.1 1720.66 1573.6 1785.83 1534.14 1823.57 1479.17 1829.11 1413.58 1801.81 1339.73 1747.73 1264.25 1675.21 1191.29 1596.97 1121.42 1528.72 1059.6 1482.12 1006.97 1467.37 962.6 1489.63 927.98 1546.62 901.94 1630.51 883.64 1727.54 871.64 1821.8 864.05 1896.71 861.28 1938.91 860.28 1940.8 859.5 1901.9 860.86 1831.04 860.68 1741.46 858.1 1651.49 856.11 1581.14 850.94 1544.53 842.27 1550.59 833.64 1599.54 821.33 1681.85 805.28 1781.06 789.2 1876.48 769.4 1947.83 745.84 1979.25 722.29 1963.98 695.24 1905.2 664.79 1816.15 634.32 1715.84 600.4 1625.29 563.15 1562.8 525.93 1540.68 485.55 1562.12 442.35 1621.25 399.74 1706.07 355.11 1797.56 309.32 1876.85 265.66 1929.03 222.63 1942.58 181.78 1914.99 145.76 1851.26 114.57 1762.65 90.13 1664.85 73.43 1574.03 65.75 1505.31 68.31 1468.73 79.13 1468.92 99.62 1503.36 128.66 1563.79 160.79 1639.66 195.95 1715.57 230.02 1778.06 255.83 1817.48 271.55 1825.69 272.33 1801.19 254.15 1747 216 1670.21 157.41 1581.14 82.6 1490.14 -4.9 1408.86 -97.96 1346.06 -185.45 1307.49 -260.21 1295.89 -312.96 1309.74 -337.01 1345.96 -329.95 1396.82 -292.76 1454.06 -234.45 1511.21 -163.98 1558.75 -95.53 1590.62 -46.38 1603.83 -27.1 1595.2 -46.66 1565.52 -105.96 1516.89 -198.28 1453.4 -309.72 1380.37 -419 1301.97 -507.13 1224.76 -556.04 1153.56 -556.34 1091.18 -509.14 1041.52 -426.6 1005.87 -293.45 980.86 -260.56 1007.66 -406.25 1044.82 -531.47 1074.16 -639.59 1102.1 -701.04 1126.39 -699.43 1147.35 -636.54 1161.54 -532.72 1168.27 -424.72 1168.54 -348.24 1160.87 -332.68 1145.9 -387.9 1124.55 -499.48 1097.17 -633.66 1064.95 -746.19 1028.15 -800.38 988.33 -777.44 946.66 -687.71 902.5 -564.15 858.02 -454.39 814.02 -403.49 769.1 -432.78 725.59 -534.96 683.91 -672.7 642.15 -794.4 602.59 -852.42 565.35 -824.26 528.32 -721.04 493.63 -585.02 461.27 -474.68 429.08 -436.19 399.11 -488.05 371.31 -609.81 343.57 -750.4 317.91 -849.18 294.35 -862.81 270.79 -785.44 249.61 -651.49 230.82 -517.85 212.09 -440.56 195.84 -450.04 182.14 -541.14 168.61 -673.54 157.75 -791.61 149.6 -847.97 141.64 -818.54 136.39 -715.3 133.71 -489.93 131.74 -763.59 132.53 -768.33 126.28 -678.32 116.69 -549.52 102.75 -423.49 83.28 -338.2 57.42 -318.21 24.77 -364.61 -15.27 -459.68 -61.78 -568.47 -115.21 -654.67 -174.85 -691.63 -237.83 -665.45 -303.88 -583.12 -370.74 -465.24 -434.34 -342.89 -493.44 -245.75 -544.93 -194.69 -585.53 -198.7 -613.73 -250.88 -627.51 -335.43 -626.9 -426.09 -611.64 -498.4 -582.97 -535.21 -545.48 -525 -501.3 -469.64 -455.22 -378.64 -414.5 -269.75 -382.63 -162.51 -364.87 -72.82 -366.06 -15.09 -387.56 5.42 -430.14 -10.88 -491.39 -56.06 -567.53 -117.95 -652.5 -185.96 -737.56 -244.54 -815.44 -283.52 -877.87 -297.87 -917.93 -283.23 -931.72 -241.84 -917.69 -177.39 -879.42 -97.63 -821.82 -10.96 -753.63 77.19 -687.35 157.57 -632.48 225.12 -599.3 277.94 -595.81 313.02 -624.12 331.34 -682.7 333.85 -764.35 323.99 -858.49 305.67 -951.63 279.73 -1029.33 252.15 -1080.09 226.16 -1095.6 200.91 -1074.33 181.51 -1019.94 169.01 -942.42 161.4 -857.92 161.5 -781.57 168.64 -729.06 180.93 -712.68 199 -736.38 221.51 -797.65 247.63 -886.02 276.43 -985.52 306.67 -1077.25 338.82 -1143.29 371.03 -1170.55 402.44 -1153.1 434.6 -1095.29 465.16 -1008.26 493.62 -910.32 522.25 -823.62 548.44 -766.02 572 -750.73 595.56 -782.13 616.2 -852.27 634.1 -945.33 652.17 -1042.19 667.84 -1120.98 681.57 -1165.29 696.04 -1166.7 709.38 -1124.31 722.42 -1047.06 737.36 -950.19 753.39 -852.6 771.69 -772.63 793.61 -724.63 819.58 -716.34 850.9 -747.31 887.37 -810.99 930.47 -892.97 980.82 -976.72 1036.06 -1047.31 1097.75 -1089.99 1164.82 -1096.95 1232.62 -1066.91 1301.53 -1004.01 1368.3 -918.49 1427.44 -822.98 1477.63 -732.22 1514.9 -658.97 1536.36 -612.5 1540.53 -597.93 1526.39 -614.65 1497.52 -658.8 1455.26 -720.67 1404.63 -789.18 1334.07 -879.88 1289.95 -921.43 1349.87 -857.03 1423.89 -785.98 1516.85 -703.11 1618.57 -617.07 1714.17 -535.11 1792.37 -465.46 1841 -413.29 1852.8 -381.53 1826.69 -371.22 1767.88 -380.48 1691.52 -407.21 1612.77 -445.61 1551.14 -489.99 1525.16 -536.75 1543.56 -578.68 1608.18 -611.38 1708.31 -633.08 1826 -639.99 1936.75 -631.59 2015.13 -608.51 2044.53 -571.65 2017.99 -523.5 1945.39 -465.76 1846.71 -402.19 1751.63 -335.98 1692.11 -268.31 1687.85 -203.21 1745.82 -142.71 1853.03 -86.95 1981.93 -38.42 2096.17 2.55 2161.74 36.4 2159.98 62.77 2091.96 82.5 1983.2 95.87 1870.71 104.24 1796 108.89 1789.58 109.38 1856.85 108.07 1978.49 106.11 2153.58 97.97 1854.37 104 1906.92 115.42 2031.89 124.34 2170.1 135.97 2265.86 150.19 2279.99 164.65 2206.23 181.52 2074.95 200.7 1943.35 219.94 1867.18 241.35 1880.81 264.91Q1880.81 264.91 1880.81 264.91" opacity="0.61"></path><path d="M1775.81 612.57C1864.77 634.31 1992.1 656.27 2110.23 678.35 2176.96 700.32 2167.34 722.21 2085.69 743.77 1961 764.93 1837.04 785.39 1755.87 804.76 1743.85 823.27 1802.74 840.16 1909.87 854.99 2073.17 873.8 2057.18 893.99 1883.82 893.92 1732.68 887.53 1783.98 856.73 1937.23 835.27 2025.07 821.83 2066.63 808.77 2049.99 797.49 1978.68 790.85 1870.57 788.58 1752.57 792.27 1651.47 803.77 1590.49 823.32 1580.29 851.87 1620.06 889.32 1695.73 935.72 1785.87 990.5 1869.25 1051.1 1923.37 1116.67 1935.64 1184.7 1902.83 1250.94 1830.36 1313.48 1732.26 1368.81 1624.64 1413.16 1527.08 1444.59 1454.42 1460.8 1415.61 1461.4 1414.13 1446.18 1445.49 1416.4 1502.43 1376.5 1570.88 1329.04 1637.34 1279.03 1707.8 1215.45 1676.39 1179.5 1579.86 1226.11 1495.37 1283.3 1407.37 1355.67 1324.02 1437.24 1250.15 1519.66 1192.55 1595.6 1153.42 1657 1133.23 1697.08 1130.97 1711.8 1143.3 1699.42 1168.47 1662.89 1200.52 1606.57 1234.93 1538.41 1270.76 1469.89 1301.87 1410.11 1325.83 1368.99 1343.36 1354.81 1351.04 1370.53 1349.02 1416 1338.69 1486.12 1319.69 1572.1 1293.63 1662.24 1261.2 1743.33 1224.21 1803.81 1184.39 1834.3 1141.11 1830.56 1097.24 1793.01 1053.97 1727.72 1009.42 1646.96 966.75 1563.58 926.57 1492.46 886.18 1447.57 848.73 1436.7 814.4 1463 780.15 1522.96 749.04 1606.5 721.07 1699.2 693.16 1784.48 668.3 1846.81 646.56 1874.25 624.81 1861.8 606.43 1811.61 591.39 1733.45 576.41 1641.65 564.86 1552.68 556.74 1482.05 548.72 1441.71 544.13 1437.78 542.8 1469.65 541.27 1531.67 542.56 1611.42 546.1 1694.52 549.98 1792.37 552.72 1793.73 544.26 1695.52 530.87 1607.64 510.83 1518.53 482.56 1440.51 445.99 1383.53 400.15 1354.55 344.93 1355.66 283.29 1385.58 214.97 1437.68 142.42 1502.93 71.28 1572.56 3 1634.77 -57.87 1680.69 -105.91 1704.82 -138.83 1702.54 -153.27 1674.07 -148.79 1622.26 -125.27 1552.65 -84.92 1472.77 -35.09 1389.78 19.96 1312.31 72.11 1247.08 110.67 1198.71 130.18 1170.67 124.1 1163.36 89.47 1176.11 27.52 1205.08 -57.03 1245.44 -153.33 1293.49 -250.96 1342.08 -336.4 1385.89 -396.26 1422.05 -422.61 1445.38 -410.92 1453.87 -365.37 1447.26 -294.22 1425 -212.28 1388.78 -139.86 1340.28 -92.33 1282.68 -83.71 1219.37 -120.17 1152.25 -197.71 1085.58 -303.73 1022.13 -416.52 962.89 -514.05 910.85 -574.87 867.01 -585.71 831.39 -544.97 804.72 -463.26 786.34 -319.89 774.17 -251.75 785.75 -384.72 801.75 -506.96 815.11 -615.92 827.78 -681.15 838.81 -684.55 849.73 -625.71 857.83 -522.87 862.77 -367.44 866.46 -382.54 854.45 -558.92 839.68 -674.44 827.6 -740.73 813.2 -735.08 796.88 -660.28 779.74 -541.68 761.17 -421.29 741.53 -343.94 721.5 -337.57 700.77 -406.48 679.57 -526.79 658.27 -655.22 636.71 -744.18 614.96 -760.18 593.21 -697.27 571.55 -579.7 549.9 -450.32 528.14 -355.83 506.21 -328.71 483.88 -377.5 461.17 -482.67 437.68 -605.61 413.12 -704.03 387.73 -742.36 360.75 -707.89 331.83 -611.89 301.59 -485.58 268.92 -369.17 233.51 -297.86 196.5 -292.09 156.49 -350.06 113.42 -452.05 69.03 -562.95 21.89 -647.36 -27.62 -679.95 -77.24 -649.14 -128.06 -563.7 -179.12 -446.08 -227.92 -328.13 -274.89 -239.62 -318.57 -200.91 -356.88 -218.84 -389.45 -284.17 -414.82 -378.21 -432.15 -472.69 -440.66 -542.15 -439.69 -569.5 -430.49 -545.85 -412.55 -476.45 -386.82 -374.98 -356.89 -263.02 -323.17 -162.49 -288.38 -90.52 -257.41 -59.21 -231.56 -70.09 -214.16 -118.12 -209.06 -189.23 -217.28 -266.61 -240.49 -335.96 -278.82 -381.09 -331.32 -393.65 -395.97 -371.27 -468.29 -316.29 -544.7 -237.14 -619.87 -143.03 -687.34 -47.46 -742.73 38.39 -781.17 107.09 -799.55 151.45 -796.46 169.99 -772.28 163.37 -731.24 136.29 -677.2 95.44 -616.85 45.36 -559.61 -4.35 -511.86 -47.31 -481.09 -80.85 -473.65 -99.03 -491.61 -100.56 -535.12 -85.99 -600.44 -55.72 -681.21 -12.58 -768.53 41.81 -851.48 103.08 -920.41 167.6 -966.28 234.85 -983.34 299.89 -969.41 360.65 -926.58 418.04 -862.7 468.77 -786.8 512.65 -711.19 551.12 -649.74 583.07 -612.07 609.45 -605.82 631.16 -633.88 648.86 -692.73 663.79 -774.24 675.76 -865.72 686.55 -952.88 697.19 -1021.28 706.36 -1059.53 716.5 -1060.96 728.27 -1024.95 739.48 -958.63 752.94 -872.92 768.99 -783.29 784.92 -707.3 803.68 -658.2 825.43 -645.73 847.18 -673.15 871.64 -734.37 898.67 -817.46 925.57 -907.98 954.78 -988.28 985.92 -1043.95 1016.51 -1065.97 1048.42 -1049.76 1080.96 -998.51 1112.03 -921.02 1142.61 -830.25 1171.66 -741.09 1209.21 -643.92 1257.07 -651.03 1262.02 -744.42 1257.59 -822.29 1245.9 -895.06 1227.11 -951.05 1204.94 -982.4 1178.06 -983.08 1148.49 -952.97 1121.66 -895.92 1097.61 -819.31 1079.93 -733.1 1073.52 -647.24 1079.47 -572.36 1100.61 -516.42 1137.85 -484.64 1191.2 -479.11 1259.39 -498.14 1336.98 -538.48 1420.8 -592.57 1504.39 -652.34 1578.76 -711.27 1638.78 -760.22 1677.74 -793.22 1691.54 -807.2 1678.93 -799.18 1641.34 -769.94 1586.6 -721.72 1521.51 -658.7 1457.24 -586.31 1407.92 -509.19 1382.12 -433.91 1388.24 -365.5 1429.3 -307.22 1502.26 -262.81 1598.72 -233.57 1703.22 -219.94 1800.74 -220.88 1874.45 -234.11 1911 -258.32 1904.64 -289.12 1856.86 -323.01 1780.51 -358.71 1691.98 -391.33 1613.15 -418.42 1566.4 -439.68 1564.61 -452 1613 -454.81 1703.51 -448.73 1818.23 -433.1 1931.66 -408.9 2016.39 -376.88 2052.88 -338.39 2031.86 -295.03 1961.05 -247.03 1859.93 -196.75 1758.26 -145.63 1688.75 -93.1 1672.99 -41.71 1719.72 7.72 1818.25 56.34 1942.37 102.02 2056.63 144.54 2126.87 185.27 2132.43 222.73 2071.48 257.12 1965.43 289.66 1848.51 319.53 1760.9 347.13 1734.82 373.31 1780.55 397.79 1885.34 420.99 2014.65 443.33 2125.18 464.93 2178.27 486.12 2155.45 506.91 2064.21 527.69 1937.01 548.67 1821.61 569.55 1759.81 590.82 1775.81 612.57Q1775.81 612.57 1775.81 612.57" opacity="0.94"></path><path d="M1670.81 320.41C1750.24 340.35 1864.98 358.15 1978.71 373.88 2057.25 389.65 2075.69 403.42 2029.19 415.31 1931.97 427.36 1812.96 437.71 1706.78 446.57 1643.06 455.88 1638.78 464.06 1692.77 471.46 1788.92 479.81 1897.66 487.95 1987.7 496.41 2034.81 506.6 2024.8 517.9 1960.57 530.96 1858.09 546.71 1743.34 565.12 1644.15 586.84 1582.91 612.08 1572.62 641.34 1612.38 675.04 1691.01 712.45 1786.27 754.34 1873.93 800.58 1933.94 849.45 1950.46 901.56 1919.76 956.03 1847.59 1010.32 1748.59 1064.54 1642.33 1117.05 1547.49 1165.17 1481.52 1208.37 1453.86 1244.77 1466.93 1272.62 1514.66 1291.09 1584.76 1299.04 1664.01 1296.8 1734.7 1283.98 1783.56 1261.18 1802.73 1231.41 1787.24 1195.38 1739.67 1155.77 1665.91 1117.44 1576.7 1082.13 1483.87 1053.5 1397.07 1035.95 1327.27 1030.99 1280.54 1040.87 1259.64 1066.67 1264.34 1107.82 1290.49 1162.96 1334.02 1228.45 1386.13 1300.87 1439.11 1375.24 1488.4 1445.26 1525.87 1506.26 1547.71 1552.99 1552.89 1581.44 1539.59 1589.34 1509.49 1575.89 1464.34 1543.63 1407.9 1495.4 1344.33 1436.62 1275.45 1375.6 1206.73 1318.52 1141.37 1272.94 1079.76 1246.23 1025.79 1241.92 980.32 1262.29 942.67 1306.52 913.93 1370.64 893.14 1448.24 879.69 1530.39 872.28 1608.03 869.3 1671.74 871.08 1713.62 874.95 1728.51 879.5 1714.29 886.27 1673.72 892.01 1611.75 895.91 1537.08 900.39 1461.63 902.2 1395.48 901.02 1348.94 899.73 1330.23 895.27 1342.21 887.6 1384.16 879.74 1450.65 868.77 1532.21 854.76 1616.87 840.68 1691.83 823.67 1745.54 803.74 1769.25 783.8 1759.35 761.18 1717.22 735.89 1649.87 710.53 1567.78 682.38 1483.37 651.41 1409.17 620.26 1355.78 586.18 1330.45 549.23 1335.87 512.18 1371.01 472.44 1429.34 430.37 1501.57 388.87 1577.98 345.87 1646.32 302.2 1696.92 260.74 1723.51 220.33 1721.53 182.38 1691.41 149.19 1636.91 120.82 1564.71 98.89 1483.67 84.3 1402.78 78.07 1331.5 81.17 1277.22 92.09 1245.04 111.95 1237.32 139.89 1253.15 171.59 1290.08 207.1 1341.76 243.26 1401.06 274.09 1461.9 298.28 1515.65 311.68 1556.15 310.02 1579.83 292.08 1582.93 256.18 1565.16 203.61 1527.96 135.95 1474.36 57.01 1409.04 -25.61 1336.44 -106.82 1262.73 -178.87 1193.16 -233.54 1131.52 -266.19 1082.13 -272.64 1047.1 -253.25 1027.53 -210.2 1023.25 -149.53 1032.65 -82.83 1054.54 -19.12 1085.07 29.77 1120.76 52.49 1159.88 43.77 1197.54 1.06 1230.78 -71.33 1258.72 -164.89 1277.89 -266.31 1287.21 -358.58 1286.94 -427.78 1276.09 -461.61 1255.46 -454.71 1225.83 -408.78 1188.45 -333.23 1145.06 -246.26 1096.24 -165.81 1044.46 -111.42 991.41 -98.5 937.07 -132.03 884.02 -208.27 833.33 -312.14 784.42 -422.83 739.25 -516.07 698.14 -570.45 660.26 -573.95 626.67 -525.67 597.11 -439.43 570.91 -336.8 548.21 -245.57 528.46 -192.58 511.44 -192.95 496.54 -249.56 483.16 -349.1 471.63 -466.44 460.82 -570.29 450.22 -631.97 440.69 -634.47 430.75 -576.59 420.01 -476.25 409.81 -362.15 398.41 -268.87 385.57 -226.31 372.93 -247.73 358.63 -328.27 342.52 -444 326.46 -559.75 308.5 -639.18 288.57 -656.99 268.63 -607.52 246.97 -507.13 223.66 -386.83 200.39 -283.43 175.58 -227.33 149.39 -234.42 123.41 -300.79 96.26 -405.02 68.23 -516.72 40.74 -601.52 12.75 -635.07 -15.31 -608.21 -42.29 -527.83 -68.75 -416.16 -94.13 -302.17 -117.65 -215.67 -139.3 -177.28 -158.44 -194.96 -174.86 -261.22 -187.95 -356.29 -197.13 -493.88 -203.65 -516.26 -188.92 -386.06 -168.14 -275.58 -151.12 -176.3 -131.29 -107.52 -109.67 -81.04 -89.35 -99.54 -69.82 -155.37 -52.75 -235.75 -41.11 -320.64 -34.98 -391.52 -36.07 -434.96 -46.15 -440.47 -65.5 -407.02 -94.87 -339.55 -133.84 -249.32 -182.09 -150.75 -238.56 -57 -300.32 17.79 -365.92 65.09 -432.39 80.89 -495.43 65.95 -552.71 26.19 -600.73 -31.73 -636.26 -95.83 -657.49 -155.65 -662.78 -204.23 -652.62 -232.68 -627.44 -237.58 -589.34 -218.52 -543.32 -176.86 -492.48 -117.33 -442.04 -44.14 -398.89 35.04 -366.76 113.72 -350.31 188.17 -353.3 251.97 -376.42 302.3 -419.38 338.27 -479.18 358.75 -551.47 365.22 -630.09 358.55 -707.18 342.17 -775.87 319.37 -829.02 290.74 -861.09 261.36 -868.8 233.85 -851.24 207.54 -811.58 186.68 -754.1 172.19 -686.17 162.54 -618.08 160.07 -557.98 164.31 -514.73 173.78 -495.85 188.94 -504.25 208.69 -540.32 232.35 -600.4 259.02 -677.35 287.57 -761.45 318.42 -841.38 349.8 -906.49 380.87 -947.48 413.01 -958.76 443.98 -938.34 473.26 -888.91 502.92 -818.66 530.46 -737.24 555.59 -657.13 580.8 -591.77 603.44 -550.64 623.37 -540.73 643.31 -564.42 660.3 -617.11 674.46 -690.07 688.7 -772.74 700.28 -851.31 709.44 -913.87 718.99 -951.89 726.56 -958.98 732.65 -934.44 739.82 -882.06 746.37 -809.15 753.12 -726 762.16 -643.63 772.75 -573.05 785.99 -522.98 803.15 -499.25 824.53 -503.75 851.23 -534.37 883.16 -586.82 921.41 -652.35 966.44 -721.54 1016.31 -786.2 1072.14 -836.52 1133 -866.15 1195.06 -871.92 1258.56 -852.18 1320.85 -809.26 1377.3 -747.47 1426.9 -673.37 1466.3 -594.57 1492.56 -518.01 1504.33 -451.23 1500.11 -399.67 1481.54 -366.92 1448.98 -354.78 1405.26 -362.46 1357.3 -388.44 1308.31 -427.95 1264.77 -475.81 1234.88 -528 1222.32 -577.55 1231.78 -619.51 1265.2 -651.11 1321.59 -668.07 1397.53 -669.01 1484.7 -654.04 1575.54 -623.58 1659.6 -579.91 1725.49 -525.15 1765.93 -463.1 1774.99 -397.42 1752.54 -330.46 1701.95 -266.48 1631.74 -208.19 1556.71 -156.87 1489.34 -114.94 1444.05 -83.06 1432.77 -61.35 1459.75 -49.62 1523.95 -46.75 1615.59 -52.42 1720.51 -64.36 1820.19 -80.73 1895.31 -101.49 1932.35 -123.45 1923.66 -145.01 1872.66 -166.75 1790.4 -185.66 1696.13 -200.86 1614.57 -213.45 1565.17 -221.22 1562.78 -224.09 1611.08 -223.24 1701.09 -217.53 1813.52 -207.4 1921.54 -193.74 1999.92 -176.36 2028.85 -155.95 2001.71 -132.84 1925.59 -107.6 1821.1 -80.88 1718.92 -52.44 1647.15 -23.33 1627.99 5.91 1669.22 36.11 1760.81 65.85 1878.35 94.78 1988.42 124.15 2059.7 152.34 2070.73 179.12 2018.58 206.06 1918.15 231.4 1799.85 255.01 1701.46 278.65 1653 300.48 1670.81 320.41Q1670.81 320.41 1670.81 320.41" opacity="0.09"></path><path d="M1565.81 267.74C1636.02 285.87 1737.87 305.44 1844.48 326.46 1929.39 347.52 1970.08 370.09 1956.91 394.22 1893.61 418.5 1795.85 444.45 1687.62 472.12 1594.18 500.04 1537.3 529.79 1528.76 561.36 1569.5 593.18 1647.92 626.8 1744.31 662.11 1837 697.42 1903.23 734.15 1928.25 771.98 1906.81 809.19 1842.88 846.88 1750.02 884.5 1646.23 920.4 1552.31 955.22 1485.48 988.18 1456.84 1017.98 1469.89 1044.66 1519.24 1067.37 1594.59 1085.48 1678.78 1098.51 1754.83 1105.79 1809.43 1107.72 1830.89 1103.54 1815.56 1093.16 1765.59 1078.21 1688.81 1058.05 1597.3 1033.46 1503.33 1007.22 1420.96 979.14 1360.45 950.88 1328.04 925.76 1326.24 904.11 1352.16 887.98 1401.01 880.05 1462.83 880.82 1527.49 891.68 1587.25 913.44 1631.89 945.99 1655.77 988.99 1656.57 1040.61 1633.14 1099.48 1588.39 1163.14 1525.93 1227.66 1452.4 1290.54 1374.54 1348.14 1297.08 1396.52 1227.27 1433.24 1169.37 1455.68 1125.45 1462.66 1097.95 1453.59 1086.39 1429.1 1090.12 1392.32 1106.31 1345.53 1131.58 1292.91 1164.59 1240.7 1200.07 1192.82 1234.73 1154.44 1268.16 1130.91 1295.75 1124.57 1316.01 1137.49 1329.65 1169.82 1334.34 1219.55 1330.45 1283.17 1318.99 1355.03 1300.01 1429.21 1274.85 1498.78 1243.97 1556.82 1209.05 1597.87 1171.53 1617.57 1130.85 1614.25 1089.5 1588.01 1048.52 1541.61 1006.39 1481.3 965.82 1413.2 927.31 1345.45 888.76 1287.32 852.74 1245.21 819.39 1224.97 786.34 1230.19 755.95 1260.46 728.2 1312.89 700.67 1381.56 675.6 1458.33 652.92 1533.79 630.3 1598.46 609.93 1644.02 591.81 1664.25 573.69 1656.64 558.03 1621.99 544.85 1565.18 531.75 1493.59 521.26 1416.24 513.48 1342.72 503.62 1261.07 498.95 1247.17 504.09 1313.9 508.42 1377.98 515.12 1446.45 523.7 1511.03 535.19 1583.3 552.89 1592.7 552.81 1527.44 545.8 1463.05 532.98 1390.59 513.04 1316.93 485.53 1248.2 449.82 1190.67 405.58 1148.69 354.72 1125.09 296.93 1120.82 233.75 1134.8 169.34 1165.34 104.53 1207.87 42.66 1257.54 -11.46 1310.55 -56.06 1360.55 -87.72 1402.97 -104.09 1435.12 -104.04 1453.12 -87.08 1455.62 -56.13 1442.65 -12.77 1414.57 38.75 1373.45 90.68 1321.42 138.81 1261.98 176.4 1198.71 196.29 1134.11 195.41 1072.25 170.85 1015.92 123.22 966.7 55.4 926.95 -26.95 897.47 -114.21 878.59 -198.03 870.12 -268.28 871.02 -315.6 880.91 -334.59 897.49 -322.34 918.86 -281.98 944.65 -219.14 971.69 -144.04 998.19 -71.4 1024.31 -12.83 1047.08 19.59 1065.51 17.39 1080.22 -20.93 1089.25 -91.69 1092.45 -183.91 1090.65 -283.56 1083.07 -373.66 1070.2 -437.76 1052.67 -464.83 1030.76 -449.48 1005.25 -395.93 976.27 -314.55 944.88 -222.53 911.84 -141.46 876.71 -88.54 840.97 -77.33 805.23 -112.57 768.52 -188.24 732.51 -289.57 697.58 -394.58 662.39 -480.82 628.65 -528.56 596.54 -527.02 564.5 -476.3 534.2 -388.17 505.7 -285.25 477.35 -191.95 450.76 -132.24 425.93 -122.65 401.2 -166.05 378.14 -252.77 356.75 -361.2 335.39 -463.97 315.63 -534.18 297.51 -553.22 279.39 -516.02 263.11 -433.03 248.68 -325.64 234.28 -221.26 221.78 -145.63 211.21 -116.78 200.75 -140.64 192.29 -209.7 185.88 -307.06 179.63 -407.36 175.44 -486.18 173.3 -525.62 171.24 -515.52 171.11 -458.58 172.75 -367.24 174.13 -261.7 176.91 -164.4 180.75 -94.69 183.61 -66.17 186.82 -82.37 189.78 -138.58 190.66 -220.44 190.26 -309.42 187.83 -387.92 181.94 -438.23 172.84 -450.45 159.78 -422.23 142.04 -358.11 119.44 -269.7 91.49 -171.06 58.53 -79.09 20.18 -7.72 -23.38 33.58 -70.67 40.06 -121.85 13.75 -175.89 -39.79 -230.33 -108.91 -284.82 -181.02 -337.57 -245.71 -385.89 -290.91 -428.93 -309.95 -464.74 -300.41 -491.57 -262.64 -508.51 -201.76 -514.51 -123.97 -509.9 -38.93 -494.46 44.23 -469 118.77 -436.42 176.92 -397.75 214.92 -355.75 231.24 -315.07 226.48 -277.64 203.99 -247.01 166.57 -227.28 120.99 -219.99 73.08 -227.16 25.96 -249.81 -13.53 -287.33 -41.97 -338.35 -58.43 -399.63 -60.16 -467.84 -47.57 -538.39 -21.61 -605.6 16.07 -665 62.78 -711.71 117.34 -741.86 175.8 -753.07 235.4 -744.21 295.91 -716.99 353.42 -673.49 406.47 -618.05 455.78 -557.66 498.88 -497.74 535.71 -445.13 567.3 -406.99 592.93 -387.29 613.41 -389.36 629.32 -414.3 641.39 -460.1 650.68 -522.81 656.89 -596.02 661.74 -672.31 666.13 -743.39 670.5 -820.21 683.26 -822.27 693.85 -746.45 701.39 -676.52 711.38 -601.88 724.01 -532.1 736.59 -477.1 751.89 -443.36 770.01 -435.73 788.14 -455.94 808.86 -500.57 832.07 -563.42 855.24 -637.07 880.8 -711.13 908.56 -776.22 936.08 -825.07 965.51 -850.9 996.48 -850.82 1026.72 -825.27 1057.89 -777.02 1089.35 -711.9 1119.14 -637.15 1148.16 -561.22 1175.5 -492.28 1210.34 -419.4 1253.73 -412.48 1257.76 -473.75 1253.09 -531.55 1241.78 -593.18 1223.88 -651.76 1202.24 -702.1 1175.74 -737.81 1145.83 -755.4 1116.83 -753.58 1088.56 -731.78 1063.76 -692.09 1046.81 -637.56 1038.44 -572.81 1041.34 -503.07 1057.61 -432.9 1087.75 -367.9 1132.14 -312.25 1188.51 -268.88 1255.46 -240.29 1329.53 -227.1 1404.4 -229.38 1476.43 -245.31 1539.77 -272.28 1588.2 -308.48 1618.36 -349.35 1626.91 -391.28 1613.77 -432.34 1579.93 -468.03 1529.15 -495.9 1469.73 -515.15 1407.88 -523.39 1352.68 -520.29 1314.4 -506.29 1298.64 -481.66 1310.5 -447.81 1350.94 -405.75 1416.92 -357.65 1501.77 -305.58 1594.03 -250.38 1682.68 -194.84 1755.1 -140.67 1800.28 -88.15 1812.01 -39.57 1788.24 4.23 1734.41 43.47 1659.3 76.98 1576.83 104.81 1480.25 135.87 1501.58 167.01 1625.53 170.79 1727.8 169.23 1822.2 166.21 1890.19 162.47 1918.16 157.02 1900.65 151.86 1841.17 147.53 1754.1 142.57 1658 139.07 1575.3 137.31 1526.99 135.55 1524.71 135.8 1571.14 138.16 1656.95 140.76 1763.42 145.49 1866.09 152.33 1940.46 159.41 1968.78 168.5 1943.52 179.52 1871.48 190.68 1769.8 203.66 1664.23 218.4 1583.05 233.17 1546.77 249.62 1565.81 267.74Q1565.81 267.74 1565.81 267.74" opacity="0.95"></path><path d="M1460.81 613.08C1612 645.7 1795.28 678.76 1865.83 711.47 1771.31 743.28 1583.06 773 1439.53 798.71 1438.79 821.13 1572.08 836.65 1736.27 843.14 1817.82 844.15 1756.73 834.6 1593.17 814.49 1422.54 791.72 1341.58 762.97 1382.61 733.13 1512.46 713.15 1645.65 704.08 1706.16 713.58 1662.15 747.62 1530.81 807.36 1370.84 892.45 1240.58 993.45 1186.03 1102.63 1211.36 1205.07 1297.38 1282.88 1398.28 1324.93 1473.18 1321.71 1500.53 1277.3 1466.8 1200.25 1384.39 1110.75 1268.49 1039.28 1146.27 1005.77 1037.91 1027.75 950.59 1106.64 894.96 1226.47 867.23 1357.31 863.96 1461.21 875.41 1508.28 891.83 1482.32 915.13 1395.2 932.37 1275.63 940.07 1168.5 946.52 1119.04 942.01 1147.28 927.19 1247.67 911.36 1384.13 886.86 1504.45 854.24 1559.25 821.62 1526.05 781.66 1418.38 733.95 1280.94 685.23 1166.59 627.14 1117.18 559.17 1146.49 489.96 1241.54 412.29 1361.4 329.81 1460.43 254.21 1505.75 184.82 1478.51 131.56 1388.57 102.76 1261.95 103.27 1135.6 137.03 1042.12 191.83 1001.53 262.05 1018.05 327.67 1078.4 359.82 1164.77 344.99 1247.16 270.97 1303.29 149.4 1322.18 3.71 1295.75 -125.05 1230.54 -193.14 1136.11 -179.3 1028.96 -87.56 924.53 33.88 831.32 128.9 760.67 138.94 714.86 44.48 693.43 -120.32 692.47 -279.26 705.01 -349.39 729.77 -295 756.32 -148.29 779.23 -8.64 801.48 31.2 814.52 -68.74 817.63 -251.34 816.11 -400.21 805.35 -412.06 787.06 -281.11 765.67 -102.47 739.32 -14.4 709.79 -91.41 679.38 -277.99 647.49 -429.18 614.87 -422.75 582.25 -264.61 549.67 -81.47 516.55 -11.84 482.55 -102.79 446.29 -277.55 406.17 -406.88 362.94 -392.65 313.28 -246.36 255.62 -63.14 193.34 40.7 122.37 11.17 43.58 -123.88 -35.84 -269.02 -117.52 -333.14 -195.84 -278.41 -261.94 -130.71 -312.98 35.29 -341.84 147.99 -346.31 163.23 -324.21 91.83 -277.68 -26.7 -219.92 -128.15 -157.57 -168.31 -105.88 -132.15 -83.42 -29.31 -97.7 105.82 -155.1 242.16 -249.73 344.02 -368.43 397.5 -488.78 401.38 -583.1 367.18 -631.24 314.52 -619.75 252.67 -555.38 204.04 -455.61 177 -352.91 169.16 -286.86 185.58 -280.84 220.17 -344.56 269.19 -461.99 326.15 -597.43 384.5 -705.08 447.23 -746.99 505.23 -707.2 555.79 -599.32 606.85 -468.33 649.1 -363.96 681.72 -330.73 714.34 -385.5 736.55 -502.5 749.03 -632.52 762 -726.47 766.61 -745.14 765.4 -683.1 768.57 -563.39 772.04 -428.24 782.2 -322.7 806.79 -278.32 848.3 -304.14 912.67 -384.12 996.24 -491.05 1099.99 -584.31 1215.4 -634.11 1321.62 -627 1407.82 -561.9 1454.21 -456.47 1451 -333 1397.7 -219.63 1308.03 -136.7 1219.56 -94.95 1161.51 -96.28 1168.1 -131.32 1251.02 -191.01 1393.19 -255.39 1550.24 -309.73 1660.16 -348.14 1681.23 -359.34 1602.5 -343.12 1470.46 -302.35 1354.36 -241.29 1328.73 -167.76 1421.95 -84.36 1593.67 -0.48 1752.64 78.81 1806.08 155.45 1723.47 222.93 1558.66 281.11 1430.77 333.81 1432.12 378.71 1574.04 417.82 1761.38 453.62 1861.94 486.51 1798.76 518.23 1622.08 549.06 1467.24 580.46 1460.81 613.08Q1460.81 613.08 1460.81 613.08" opacity="0.35"></path><path d="M1355.81 317.07C1485.48 346.06 1654.29 368.92 1754.7 386.08 1726.88 403.57 1587.28 416.08 1420.24 424.74 1319.12 435.21 1336.44 444.01 1452.91 453.42 1601.87 468.08 1696.21 487.31 1686.96 514.22 1578.02 550.7 1420.49 598.43 1284.32 658.94 1221.7 728.86 1251.03 809.15 1346.92 896.13 1466.68 980.72 1553.54 1059.85 1574.17 1125 1521.47 1168.01 1411.31 1184.57 1278.26 1170.89 1152.88 1131.96 1066.9 1071.32 1031.44 999.9 1046.13 936.66 1096.58 892.53 1162.08 881.81 1230.98 913.25 1281.15 985.08 1304.5 1088.2 1301.79 1202.52 1271.3 1306.63 1220.63 1376.75 1153.25 1396.73 1079.04 1361.41 1005.23 1279.2 928.99 1176.18 860.01 1079.31 799.9 1019.31 741.84 1018.69 692.46 1079.38 650.82 1186.69 610.16 1309.21 575.55 1409.47 546.56 1454.25 517.56 1428.97 494.87 1341.72 479.05 1221.88 461.08 1067.8 474.39 1097.84 505.65 1245.05 526.86 1336.88 549.57 1388.06 566.7 1385.75 567.12 1331.1 548.62 1236.26 503.72 1123.34 432.76 1013.82 336.37 929.63 222.78 882.94 112.59 878.19 18.99 910.02 -37.18 966.01 -43.2 1035.94 2.95 1100.8 90.33 1148.32 185.38 1173.82 259.34 1169.96 277.81 1138.76 222.94 1083.83 103.8 1011.81 -46.15 930.96 -172.23 844.57 -229.66 761.96 -192.9 687.59 -82.59 620.72 51.31 565.88 138.99 522.27 126.99 487.87 13.76 461.95 -151.55 441.67 -284.38 426.94 -315.55 413.99 -225.61 400.46 -69.76 389.05 61.29 374.66 83.38 356.04 -22.76 337.84 -194.51 314.48 -324.18 285.49 -327.38 256.5 -202.56 222.55 -31.09 184.27 82.7 146.43 73.05 105.16 -46.66 61.9 -204.23 20.75 -302.76 -20.01 -287.48 -57.89 -166.49 -90.21 -2.5 -115.8 124.03 -131.65 158.26 -138.29 92.77 -132.45 -30.03 -113.19 -151.76 -86.44 -210.49 -50.04 -181.92 -8.34 -76 27.81 67.87 56.68 200.66 70.13 286.43 59.85 304.25 23.9 262.2 -39.58 178.39 -125.1 88.58 -226.15 21.29 -330.32 -9.56 -420.55 7.76 -484.67 66.18 -510.13 156.68 -493.63 261.15 -437.55 363.78 -353.89 459.22 -266.84 534.65 -195.62 588.76 -162.21 624.14 -181.15 642.5 -251.19 650.2 -359.37 645.4 -529.88 638.48 -593.52 650.6 -449.46 661.27 -335.35 680.9 -251.03 709.9 -225.73 738.89 -270.48 776.57 -367.79 822.36 -484.58 867.99 -586.17 921.12 -638.34 980.04 -626.55 1036.43 -555.37 1094.6 -444.66 1149.78 -325.27 1211.25 -199.59 1225.61 -260.3 1164.56 -389 1109.55 -466.26 1051.29 -510 1005.48 -511.26 991.74 -470.34 1017.58 -393.93 1089.92 -296.46 1198.7 -190.8 1328.33 -93.97 1450.13 -17.03 1530.19 34.65 1548.56 57.9 1497.03 56.37 1398.48 32.71 1286.88 -3.25 1211.15 -43.15 1212.77 -85.44 1299.6 -119.51 1447.19 -141.82 1595.87 -154.73 1684.99 -153.46 1672 -139.69 1566.72 -116.35 1421.61 -84.09 1316.98 -46.14 1318.06 -2.95 1430.44 41.96 1599.2 86.17 1730.11 132.18 1748.29 175.32 1640.23 214.31 1474.49 253.63 1352.61 288.07 1355.81 317.07Q1355.81 317.07 1355.81 317.07" opacity="0.94"></path><path d="M1250.81 270.61C1359.66 295.98 1508.88 325.51 1624.16 359.16 1652.46 393.09 1579.49 431.66 1441.26 475 1298.45 519.03 1212.52 568.1 1214.45 621.83 1299.16 675.48 1424.29 732.46 1535.24 790.96 1590.07 845.83 1564.68 898.22 1470.21 944.65 1336.92 981.17 1208.78 1006.28 1121.8 1016.7 1095.22 1012.84 1129.49 992.74 1205.14 957.23 1299.99 913.72 1380.81 863.36 1426.5 813.19 1428.83 774.69 1385.2 751.84 1307.16 752.15 1205.91 780.49 1100.86 836.34 1006.37 916.39 928.14 1010.49 875.23 1108.23 846.59 1195.07 840.2 1256.45 850.18 1282.76 869.05 1268.08 896.9 1217.08 923.36 1137.92 944.22 1047.02 970.11 941.62 973.85 984.18 955.08 1127.97 939.47 1232.82 918.7 1313.61 893.33 1349.25 867.96 1330.9 838.59 1262.92 804.79 1163.46 770.12 1056.27 729.46 966.23 681.72 912.38 631.66 905.18 573.36 942.82 507.09 1013.51 440.2 1102.61 368.68 1187.14 296.86 1249.14 234.02 1278.45 181.18 1267.21 145.91 1218.62 132.89 1140.55 145.36 1046.05 184.49 949.62 239.87 862.22 307.16 795.56 372.11 754.79 413.85 741.71 422.64 753.52 387.06 783.85 308.12 829.06 195.63 878.18 70.82 923.77 -34.78 964.35 -97.29 991.55 -97.13 1003.6 -36.57 1002.28 66.97 985.89 177.64 957.16 249.47 917.89 254.2 871.18 180.76 820.48 51.22 765.15 -90.42 710.04 -189.45 657.25 -205.7 603.66 -131.88 554.13 1.13 509.35 129.57 464.94 195.07 425.34 161.75 390.6 41.45 356.08 -110.33 326.08 -219.18 300.7 -229.89 275.33 -137.35 255.2 10.54 240.3 143.75 225.62 200.96 216.52 161.07 213.09 44.74 210.02 -90.05 212.55 -182.5 220.1 -195.08 226.87 -120.65 236.92 9.55 248.28 198.31 256.94 187.2 231.53 35.38 181.73 -49.77 130.59 -83.39 65.63 -57.49 -11.24 21.34 -93.14 132.77 -177.09 250.48 -255.56 355.08 -319.14 426.2 -362.63 458.03 -379.51 451.16 -368.71 414.96 -330.3 363.23 -269.33 302.61 -199.31 250.13 -129.4 213.53 -73.95 192.17 -47.99 192.14 -57.41 210.38 -105.3 243.68 -185.9 288.26 -286.94 338.57 -390.36 395.29 -475.37 451.29 -525.14 503.44 -527.74 556.75 -483.7 603.93 -401.14 644.05 -298.97 684.13 -204.51 717.03 -139.1 742.4 -120.73 767.77 -156.35 785.01 -234.55 794.35 -334.39 804.4 -469.43 790.89 -482.66 775.7 -356.89 771.42 -251.68 771.89 -155.99 782.57 -86.39 808.29 -53.1 851.2 -58.73 914.21 -97.48 992.47 -161.69 1085.39 -234.84 1185.12 -302.53 1275.95 -356.16 1349.91 -383.76 1393.08 -382.15 1397.55 -352.51 1361.27 -297.99 1289.93 -226.24 1205.47 -142.82 1125.71 -57.62 1076.82 22.18 1080.88 94 1142.75 151.85 1254.33 194.82 1386.02 223.51 1503.7 238.83 1569.8 243.97 1562.84 239.2 1484.88 229.69 1364.03 218.78 1252.42 204.25 1194.51 192.33 1221.4 184.7 1328.17 177.01 1475.08 174.94 1601.21 178.74 1650.89 183.25 1601.14 193.38 1472.95 208.86 1330.07 224.63 1240.1 245.24 1250.81 270.61Q1250.81 270.61 1250.81 270.61" opacity="0.25"></path><path d="M1145.81 613.53C1234.77 635.27 1360.76 657.26 1476.63 679.11 1543.18 700.57 1535.59 721.11 1458.66 739.86 1338.21 757.11 1213.97 771.19 1123.77 780.92 1092 787.74 1124.17 788.81 1204.83 783.23 1310 774.16 1404.51 758.26 1461.95 735.91 1469.23 712.22 1423 684.73 1336.26 655.88 1226.39 631.94 1117.94 612.4 1030.49 601.12 975.43 602.93 959.47 618.54 978.33 650.26 1026.31 697.72 1088.46 760.05 1151.33 834.28 1208.93 913.49 1248.13 993.07 1265.24 1065.2 1261.4 1121.44 1236.05 1156.42 1194.33 1164.89 1138.63 1146.76 1075.92 1102.91 1011.61 1038.83 944.44 966.55 881.81 894.68 825.68 835.57 771.77 801.99 725.23 799.27 685.5 830.55 647.96 892.78 615.72 976.86 587.74 1069.39 560.48 1154.38 536.15 1216.81 514.41 1244.25 492.66 1231.8 474.01 1181.45 458.92 1103.55 444.54 1012.07 435.04 922.94 431.57 850.7 430.29 806.07 436.55 794.55 451 815.34 467.68 864.76 491.68 931.6 521.16 1003.92 560.77 1099.32 595.1 1147.7 560.77 1089.74 510.14 1024.7 438.57 948.64 349.85 869.38 255.87 791.72 163.86 723.24 87.38 667.78 40.02 626.66 28.83 601.47 58.22 590.68 119.99 593.67 204.23 606.51 291.45 625.51 355.55 650.98 380.7 676.87 354.03 700.46 277.19 724.05 164.96 742.21 43.85 754.16 -52.74 763.36 -99.07 766.06 -79.58 762.85 -1.64 757 112.21 746.39 224.26 732.02 292.8 716.2 293.98 697.92 223.13 678 102.96 657.67 -25.22 636.47 -114.18 614.72 -130.18 592.98 -67.29 571.21 49.32 549.17 178.35 526.74 274.81 503.29 308.49 478.09 270.55 451.45 178.15 421.78 65.04 388.18 -34.37 351.94 -85.88 310.61 -75.49 263.74 -6.82 214.09 101.02 159.19 219.12 99.9 321.42 40.6 384.33 -19.95 399.03 -78.94 366.4 -131.46 300.33 -176.67 220.3 -210.77 141.16 -231.11 83.89 -235.78 58.38 -223.17 66.74 -196.22 108.49 -154.88 174.98 -102.9 259.48 -49.31 348.93 2.53 433.63 44.92 510.57 68.69 571.43 70.73 615.22 47.25 643.41 -1.6 656.89 -72.05 659.87 -157.02 652.83 -245.28 641.82 -326.28 630.66 -387.98 616.22 -421.05 605.67 -419.93 600.66 -383.7 595.41 -319.86 596.7 -237.14 604.85 -149.96 613.15 -76.36 628.12 -28.2 649.87 -15.73 671.61 -43.15 699.62 -103.37 733.67 -184.05 767.88 -272.29 808.33 -349.97 854.59 -403.82 900.61 -426.71 951.45 -413.62 1005.34 -367.77 1055.95 -296.4 1105.59 -210.37 1150.32 -122.15 1185.02 -42.12 1208.29 19.44 1215.81 56.97 1207.72 67.9 1181.53 54 1138.11 20.4 1086.92 -29.07 1029.84 -84.44 976.46 -137.97 941.08 -186.53 929.19 -221.71 949.34 -240.68 1003.35 -243.89 1087.76 -229.64 1192.58 -200.34 1298.29 -157.94 1388.57 -106.04 1443.84 -48.59 1451.79 13.77 1409.95 75.93 1327.05 135.32 1228.34 193.38 1138.21 246.03 1085.48 292.79 1091.03 336.05 1156.7 373.61 1268.39 406.24 1393.78 435.96 1496.57 462.17 1542.89 485.93 1517.61 508.19 1427.54 529.39 1302.82 550.29 1190.49 570.79 1129.81 591.78 1145.81 613.53Q1145.81 613.53 1145.81 613.53" opacity="0.27"></path><path d="M1040.84 313.75C1111.06 331.88 1211.81 346.18 1316.18 356.89 1399.92 367.72 1440.58 375.21 1429.79 379.82 1371.23 385.04 1278.7 388.08 1173.68 389.74 1042.89 394.84 1018.06 414.99 1115.03 436.52 1197.5 457.96 1271.16 485.64 1323.14 520.46 1347.34 561.43 1338.37 609.5 1299.46 664.05 1235.67 721.78 1156.69 782.75 1072.78 844.26 989.95 901.66 918.35 953.49 862.64 995.96 813.72 1033.14 820.16 1004.32 855.41 940.43 886.17 886.41 915.42 828.39 940.45 772.73 973.26 712.77 1000.54 716.26 996.67 787.99 990.43 857.1 980.04 933.7 966.46 1008.86 952.34 1073.34 936.04 1119.03 917.92 1139.26 899.8 1131.65 880.29 1096.82 859.1 1040.12 837.39 968.9 813 891.93 785.06 818.4 755.33 755.96 720.6 711.15 680.05 687.51 636.83 686.78 587.27 706.93 531.74 743.9 475.31 794.54 415.44 850.85 354.92 906.39 300.02 957.99 250.93 998.42 212.37 1024.49 188.63 1035.9 181.86 1030.5 194.74 1009.66 224.53 975.16 271.25 929.6 330.32 876.59 390.48 817.66 446.84 757.32 489.23 698.52 506.74 641.33 495.53 589.44 452.46 543.86 381.62 503.6 290.39 470.28 191.76 443.31 71.24 413.46 56.23 379.66 170.88 369.56 265.68 365.01 349.55 359.72 401.13 352.81 404.92 346.65 358.92 338.07 271.6 326.55 163.65 315.2 61.06 300.58 -9.15 282.46 -28.22 264.34 9.03 243.15 91.31 219.2 197.83 195.42 302.04 169.23 379.77 141.21 414.72 113.94 401.12 85.67 345.6 57.34 260.61 30.96 168.54 5.96 89.85 -16.34 38.36 -34.92 26.28 -48.99 54.26 -57.17 116.95 -59.96 202.8 -55.53 297.03 -43.2 387.89 -25.56 461.42 -0.64 510.2 30.61 531.26 63.48 525.12 98.94 497.26 134.12 451.45 163.38 398.26 186.32 345.76 199.44 296.16 198.88 258.53 184.1 235.45 153.83 225.51 108.9 231.05 50.91 249.61 -16.84 279.39 -88.55 317.44 -159.62 360.21 -223.55 408.24 -273.81 456.52 -305.76 502.76 -315.27 550.12 -301.86 593.45 -265.71 631.95 -210.27 670.18 -143.74 703.38 -72.11 731.46 -4.47 759.34 48.64 782.4 81.64 800.52 89.27 818.65 69.06 831.4 25.22 838.81 -35.67 846.03 -107.24 847.61 -178.51 843.56 -240.63 834.36 -301.06 793.58 -273.89 768.92 -194.76 757.55 -125.81 750.12 -53.03 750.1 17.16 761.29 80.43 784.64 131.56 822.51 168.07 873.53 188.82 938.13 194.04 1013.66 185.74 1092.09 164.67 1170.16 135.46 1239.73 101.81 1291.33 64.05 1320.09 27.97 1320.43 -3.83 1293.05 -32.45 1239.7 -53.55 1167.7 -66.58 1092.35 -73.48 1024.06 -72.27 977.53 -63.96 965.72 -50.07 992.57 -30.76 1057.34 -7.54 1149.31 19.24 1253.18 48.04 1348.39 77.51 1414.15 108.72 1436.4 139.25 1408.44 168.21 1337.7 197.78 1238.83 225.06 1135.89 249.53 1057.19 274.12 1021.77 295.63 1040.84 313.75Q1040.84 313.75 1040.84 313.75" opacity="0.19"></path><path d="M935.81 273.52C1065.48 302.51 1230.98 341.25 1328.46 389.53 1306.5 439 1177.58 499.59 1016 570.19 894.87 640.5 864.56 716.27 918.8 789.91 1028.37 849.51 1134.02 891.44 1195.95 904.7 1203.83 888.32 1153.97 838.82 1069.38 762.62 962.17 683.6 858.89 613.77 772.51 576.74 695.46 591.69 638.27 659.04 595.77 767.71 558.37 889.14 526.91 989.48 497.91 1034.25 468.92 1008.97 443.76 921.55 426.49 803.01 414.3 686.94 418.74 604.69 445.55 572.2 481.68 592.8 537.21 651.78 599.74 727.07 639.63 806.52 647.87 864.78 601.99 892.73 502.05 892.74 362.02 862.71 222.26 812.33 137.83 745.89 142.14 674.19 242.01 605.53 382.34 534.99 494.75 473.35 505.52 422.63 396.85 372.69 225.48 332.92 95.81 303.92 92.61 274.93 216.92 258.08 386.18 253.34 505.19 249.38 513.14 258.28 422.2 278.57 229.32 308.96 263.34 342.58 456.37 298.77 578.18 232.82 656.63 140.18 690.24 30.55 684.65 -74.92 656.77 -159.9 625.57 -201.77 587.23 -190.54 563.1 -124.81 557.16 -19.93 552.98 87.4 565.71 168.96 594.71 194.26 623.7 149.51 667.58 55.06 726.44 -55.17 787.07 -152.67 863.95 -203.53 952.53 -197.23 1033.98 -138.96 1109.61 -43.12 1159.89 66.08 1170.96 172.48 1134.14 256.36 1050.34 310.74 954.36 335.48 870.64 335.18 844.27 320.26 902.58 291.32 1035.53 263.29 1196.19 243.23 1308.38 222.88 1316.94 215.03 1209.11 220.24 1051.05 226.65 932.61 244.52 935.81 273.52Q935.81 273.52 935.81 273.52" opacity="0.12"></path><path d="M830.81 613.92C919.77 635.66 1043.08 657.63 1154.07 678.38 1220.2 697.62 1217.21 712.79 1151.9 721 1043.98 724.18 925.44 716.67 825.28 696.52 758.16 670.21 734.2 632.11 746.46 585.32 789.34 541.55 844.08 499.88 896.07 468.88 947.13 459.28 981.49 472.91 998.14 513.59 1006.29 579.06 1000.71 663.41 986.2 755.16 968.65 839.18 947.73 901.81 925.99 929.25 904.24 916.8 882.69 866.12 859.23 789.12 832.73 698.77 798.76 610.19 752.92 536.21 698.58 483.84 628.41 457.66 543.83 455.66 458.33 476.54 372.37 511.1 300.98 550.93 260.22 596.56 258.4 636.08 302.88 665.5 380.4 690.36 479.43 703.01 571.41 704.63 620.77 701.64 611.4 690.72 536.87 674.43 417.49 656.66 289.77 636.26 200.81 614.52 184.81 592.77 247.66 570.71 361.84 547.47 489.54 522.75 589.06 494.1 635.2 459.41 620.68 420.1 558.45 371.64 474.09 313.27 384.25 250.34 318.05 179.59 286.44 105.46 287.83 37.13 322.11 -23.21 377.12 -66.73 448.49 -87.38 522.26 -80.7 589.67 -44.29 657.02 13.74 712.81 89.93 756.28 171.9 798.18 240.51 829.92 286.78 851.67 299.25 873.41 271.83 884.14 213.61 883.24 137.99 880.78 54.63 864.55 -17.34 834.89 -66.88 805.16 -91.63 767.21 -85.76 729.35 -53.52 707.86 0.11 704.8 67.57 731.91 139.84 792.02 215.14 884.01 284.46 996.49 344.28 1103.5 397.95 1185.23 441.28 1215.69 475.78 1185.49 505.26 1098.35 529.65 979.04 551.42 873.26 571.68 814.81 592.17 830.81 613.92Q830.81 613.92 830.81 613.92" opacity="0.96"></path><path d="M725.81 310.44C855.48 339.44 1014.32 344.76 1104.68 333.66 1096.24 329.23 996.3 323.52 867.44 334.33 736.3 375.7 643.57 452.87 588.78 562.04 552.65 678.98 527.39 779.48 498.39 824.25 469.4 798.97 439.41 711.18 425.3 597.52 429.85 482.87 477.32 394.34 570.46 340.41 661.31 316.17 730.5 311.69 717.68 309.99 606.07 316.01 435.48 308.43 305.81 279.44 302.6 250.44 425.93 202.78 587.54 146.51 735.7 77.58 622.09 88.24 548.84 210.53 518.02 302.93 519.78 378.97 548.78 404.25 577.77 359.48 631.25 270.73 712.32 175.04 800.74 87.13 916.15 40.71 1028.24 37.35 1091.8 64.54 1080.32 115.51 974.54 170.19 834.18 231.53 722.6 281.45 725.81 310.44Q725.81 310.44 725.81 310.44" opacity="0.34"></path></g></svg>